<?xml version="1.0" encoding="utf-8"?>
<svg xmlns="http://www.w3.org/2000/svg" xmlns:xlink="http://www.w3.org/1999/xlink" style="margin: auto; display: block; z-index: 1; position: relative; shape-rendering: auto;" width="1000" height="1000" preserveAspectRatio="xMidYMid" viewBox="0 0 1000 1000">
<g transform="translate(500,500) scale(-1,-1) translate(-500,-500)"><g transform="translate(200.49592326190879 -100) rotate(0)">
<animateTransform attributeName="transform" type="translate" keyTimes="0;1" values="200.49592326190879 -100;1100 1106.0935110885375" dur="10s" repeatCount="indefinite" begin="-4.581257429737056s"></animateTransform>
<animateTransform attributeName="transform" type="rotate" keyTimes="0;1" begin="-4.581257429737056s" values="0 50 50;717.7518603849536 50 50" dur="10s" repeatCount="indefinite" additive="sum"></animateTransform>
<path d="M87.422,66.495c-2.009-0.544-4.049-0.97-6.107-1.283c10.617-11.116,15.747-27.37,13.129-42.549 c-5.236,1.77-10.223,4.252-14.824,7.313c-4.13,2.747-7.948,5.961-11.374,9.55C67.425,24.863,61.344,10.451,50.991,0 c-4.015,5.451-7.281,11.444-9.753,17.744c-3.579,9.122-5.501,18.893-5.669,28.691c-4.79-7.979-11.256-14.955-18.858-20.322 c-4.514-3.187-9.431-5.806-14.616-7.72c-3.361,16.717,2.731,35.015,15.445,46.379c0.369,0.33,0.745,0.654,1.126,0.972 c-2.359,0.411-4.689,0.983-6.969,1.714C7.582,68.775,3.634,70.61,0,72.945c8.85,9.963,23.134,14.771,36.208,12.186 c3.524-0.697,7.002-1.919,9.887-4.057c0.073-0.054,0.145-0.111,0.218-0.167c-0.987,5.662-2.714,11.136-5.104,16.221l7.509,2.806 c1.698-5.797,2.631-11.748,2.814-17.669c0.107,0.076,0.215,0.152,0.324,0.225c3.142,2.114,6.863,3.232,10.607,3.796 C76.352,88.379,91.161,82.628,100,71.71C96.061,69.427,91.816,67.684,87.422,66.495z" fill="#182951" transform="scale(0.5416385659834395)"></path>
</g><g transform="translate(-100 97.01292573198495) rotate(0)">
<animateTransform attributeName="transform" type="translate" keyTimes="0;1" values="-100 97.01292573198495;1100 639.5186806759632" dur="10s" repeatCount="indefinite" begin="-1.409300885877749s"></animateTransform>
<animateTransform attributeName="transform" type="rotate" keyTimes="0;1" begin="-1.409300885877749s" values="0 50 50;953.9345130949091 50 50" dur="10s" repeatCount="indefinite" additive="sum"></animateTransform>
<path d="M87.422,66.495c-2.009-0.544-4.049-0.97-6.107-1.283c10.617-11.116,15.747-27.37,13.129-42.549 c-5.236,1.77-10.223,4.252-14.824,7.313c-4.13,2.747-7.948,5.961-11.374,9.55C67.425,24.863,61.344,10.451,50.991,0 c-4.015,5.451-7.281,11.444-9.753,17.744c-3.579,9.122-5.501,18.893-5.669,28.691c-4.79-7.979-11.256-14.955-18.858-20.322 c-4.514-3.187-9.431-5.806-14.616-7.72c-3.361,16.717,2.731,35.015,15.445,46.379c0.369,0.33,0.745,0.654,1.126,0.972 c-2.359,0.411-4.689,0.983-6.969,1.714C7.582,68.775,3.634,70.61,0,72.945c8.85,9.963,23.134,14.771,36.208,12.186 c3.524-0.697,7.002-1.919,9.887-4.057c0.073-0.054,0.145-0.111,0.218-0.167c-0.987,5.662-2.714,11.136-5.104,16.221l7.509,2.806 c1.698-5.797,2.631-11.748,2.814-17.669c0.107,0.076,0.215,0.152,0.324,0.225c3.142,2.114,6.863,3.232,10.607,3.796 C76.352,88.379,91.161,82.628,100,71.71C96.061,69.427,91.816,67.684,87.422,66.495z" fill="#182951" transform="scale(0.5043763963204184)"></path>
</g><g transform="translate(-100 262.6870402205973) rotate(0)">
<animateTransform attributeName="transform" type="translate" keyTimes="0;1" values="-100 262.6870402205973;1100 1710.8157650414203" dur="10s" repeatCount="indefinite" begin="-0.6779555501307621s"></animateTransform>
<animateTransform attributeName="transform" type="rotate" keyTimes="0;1" begin="-0.6779555501307621s" values="0 50 50;816.961389613007 50 50" dur="10s" repeatCount="indefinite" additive="sum"></animateTransform>
<path d="M87.422,66.495c-2.009-0.544-4.049-0.97-6.107-1.283c10.617-11.116,15.747-27.37,13.129-42.549 c-5.236,1.77-10.223,4.252-14.824,7.313c-4.13,2.747-7.948,5.961-11.374,9.55C67.425,24.863,61.344,10.451,50.991,0 c-4.015,5.451-7.281,11.444-9.753,17.744c-3.579,9.122-5.501,18.893-5.669,28.691c-4.79-7.979-11.256-14.955-18.858-20.322 c-4.514-3.187-9.431-5.806-14.616-7.72c-3.361,16.717,2.731,35.015,15.445,46.379c0.369,0.33,0.745,0.654,1.126,0.972 c-2.359,0.411-4.689,0.983-6.969,1.714C7.582,68.775,3.634,70.61,0,72.945c8.85,9.963,23.134,14.771,36.208,12.186 c3.524-0.697,7.002-1.919,9.887-4.057c0.073-0.054,0.145-0.111,0.218-0.167c-0.987,5.662-2.714,11.136-5.104,16.221l7.509,2.806 c1.698-5.797,2.631-11.748,2.814-17.669c0.107,0.076,0.215,0.152,0.324,0.225c3.142,2.114,6.863,3.232,10.607,3.796 C76.352,88.379,91.161,82.628,100,71.71C96.061,69.427,91.816,67.684,87.422,66.495z" fill="#182951" transform="scale(0.5081142529029161)"></path>
</g><g transform="translate(497.98696303266877 -100) rotate(0)">
<animateTransform attributeName="transform" type="translate" keyTimes="0;1" values="497.98696303266877 -100;1191.6978476093818 1100" dur="10s" repeatCount="indefinite" begin="-6.487629174808324s"></animateTransform>
<animateTransform attributeName="transform" type="rotate" keyTimes="0;1" begin="-6.487629174808324s" values="0 50 50;153.36734114500155 50 50" dur="10s" repeatCount="indefinite" additive="sum"></animateTransform>
<path d="M87.422,66.495c-2.009-0.544-4.049-0.97-6.107-1.283c10.617-11.116,15.747-27.37,13.129-42.549 c-5.236,1.77-10.223,4.252-14.824,7.313c-4.13,2.747-7.948,5.961-11.374,9.55C67.425,24.863,61.344,10.451,50.991,0 c-4.015,5.451-7.281,11.444-9.753,17.744c-3.579,9.122-5.501,18.893-5.669,28.691c-4.79-7.979-11.256-14.955-18.858-20.322 c-4.514-3.187-9.431-5.806-14.616-7.72c-3.361,16.717,2.731,35.015,15.445,46.379c0.369,0.33,0.745,0.654,1.126,0.972 c-2.359,0.411-4.689,0.983-6.969,1.714C7.582,68.775,3.634,70.61,0,72.945c8.85,9.963,23.134,14.771,36.208,12.186 c3.524-0.697,7.002-1.919,9.887-4.057c0.073-0.054,0.145-0.111,0.218-0.167c-0.987,5.662-2.714,11.136-5.104,16.221l7.509,2.806 c1.698-5.797,2.631-11.748,2.814-17.669c0.107,0.076,0.215,0.152,0.324,0.225c3.142,2.114,6.863,3.232,10.607,3.796 C76.352,88.379,91.161,82.628,100,71.71C96.061,69.427,91.816,67.684,87.422,66.495z" fill="#182951" transform="scale(0.42338827189138845)"></path>
</g><g transform="translate(120.46139781352205 -100) rotate(0)">
<animateTransform attributeName="transform" type="translate" keyTimes="0;1" values="120.46139781352205 -100;1100 918.1767901821502" dur="10s" repeatCount="indefinite" begin="-5.433764569923829s"></animateTransform>
<animateTransform attributeName="transform" type="rotate" keyTimes="0;1" begin="-5.433764569923829s" values="0 50 50;929.0559744532657 50 50" dur="10s" repeatCount="indefinite" additive="sum"></animateTransform>
<path d="M87.422,66.495c-2.009-0.544-4.049-0.97-6.107-1.283c10.617-11.116,15.747-27.37,13.129-42.549 c-5.236,1.77-10.223,4.252-14.824,7.313c-4.13,2.747-7.948,5.961-11.374,9.55C67.425,24.863,61.344,10.451,50.991,0 c-4.015,5.451-7.281,11.444-9.753,17.744c-3.579,9.122-5.501,18.893-5.669,28.691c-4.79-7.979-11.256-14.955-18.858-20.322 c-4.514-3.187-9.431-5.806-14.616-7.72c-3.361,16.717,2.731,35.015,15.445,46.379c0.369,0.33,0.745,0.654,1.126,0.972 c-2.359,0.411-4.689,0.983-6.969,1.714C7.582,68.775,3.634,70.61,0,72.945c8.85,9.963,23.134,14.771,36.208,12.186 c3.524-0.697,7.002-1.919,9.887-4.057c0.073-0.054,0.145-0.111,0.218-0.167c-0.987,5.662-2.714,11.136-5.104,16.221l7.509,2.806 c1.698-5.797,2.631-11.748,2.814-17.669c0.107,0.076,0.215,0.152,0.324,0.225c3.142,2.114,6.863,3.232,10.607,3.796 C76.352,88.379,91.161,82.628,100,71.71C96.061,69.427,91.816,67.684,87.422,66.495z" fill="#182951" transform="scale(0.4238030266695807)"></path>
</g><g transform="translate(-100 208.9371755884265) rotate(0)">
<animateTransform attributeName="transform" type="translate" keyTimes="0;1" values="-100 208.9371755884265;1091.2381862397267 1100" dur="10s" repeatCount="indefinite" begin="-8.143419530722698s"></animateTransform>
<animateTransform attributeName="transform" type="rotate" keyTimes="0;1" begin="-8.143419530722698s" values="0 50 50;382.9356399897158 50 50" dur="10s" repeatCount="indefinite" additive="sum"></animateTransform>
<path d="M87.422,66.495c-2.009-0.544-4.049-0.97-6.107-1.283c10.617-11.116,15.747-27.37,13.129-42.549 c-5.236,1.77-10.223,4.252-14.824,7.313c-4.13,2.747-7.948,5.961-11.374,9.55C67.425,24.863,61.344,10.451,50.991,0 c-4.015,5.451-7.281,11.444-9.753,17.744c-3.579,9.122-5.501,18.893-5.669,28.691c-4.79-7.979-11.256-14.955-18.858-20.322 c-4.514-3.187-9.431-5.806-14.616-7.72c-3.361,16.717,2.731,35.015,15.445,46.379c0.369,0.33,0.745,0.654,1.126,0.972 c-2.359,0.411-4.689,0.983-6.969,1.714C7.582,68.775,3.634,70.61,0,72.945c8.85,9.963,23.134,14.771,36.208,12.186 c3.524-0.697,7.002-1.919,9.887-4.057c0.073-0.054,0.145-0.111,0.218-0.167c-0.987,5.662-2.714,11.136-5.104,16.221l7.509,2.806 c1.698-5.797,2.631-11.748,2.814-17.669c0.107,0.076,0.215,0.152,0.324,0.225c3.142,2.114,6.863,3.232,10.607,3.796 C76.352,88.379,91.161,82.628,100,71.71C96.061,69.427,91.816,67.684,87.422,66.495z" fill="#182951" transform="scale(0.6603977504277383)"></path>
</g><g transform="translate(-100 107.62457566770756) rotate(0)">
<animateTransform attributeName="transform" type="translate" keyTimes="0;1" values="-100 107.62457566770756;1100 1041.4298472041332" dur="10s" repeatCount="indefinite" begin="-7.860030551663217s"></animateTransform>
<animateTransform attributeName="transform" type="rotate" keyTimes="0;1" begin="-7.860030551663217s" values="0 50 50;974.3279771243316 50 50" dur="10s" repeatCount="indefinite" additive="sum"></animateTransform>
<path d="M87.422,66.495c-2.009-0.544-4.049-0.97-6.107-1.283c10.617-11.116,15.747-27.37,13.129-42.549 c-5.236,1.77-10.223,4.252-14.824,7.313c-4.13,2.747-7.948,5.961-11.374,9.55C67.425,24.863,61.344,10.451,50.991,0 c-4.015,5.451-7.281,11.444-9.753,17.744c-3.579,9.122-5.501,18.893-5.669,28.691c-4.79-7.979-11.256-14.955-18.858-20.322 c-4.514-3.187-9.431-5.806-14.616-7.72c-3.361,16.717,2.731,35.015,15.445,46.379c0.369,0.33,0.745,0.654,1.126,0.972 c-2.359,0.411-4.689,0.983-6.969,1.714C7.582,68.775,3.634,70.61,0,72.945c8.85,9.963,23.134,14.771,36.208,12.186 c3.524-0.697,7.002-1.919,9.887-4.057c0.073-0.054,0.145-0.111,0.218-0.167c-0.987,5.662-2.714,11.136-5.104,16.221l7.509,2.806 c1.698-5.797,2.631-11.748,2.814-17.669c0.107,0.076,0.215,0.152,0.324,0.225c3.142,2.114,6.863,3.232,10.607,3.796 C76.352,88.379,91.161,82.628,100,71.71C96.061,69.427,91.816,67.684,87.422,66.495z" fill="#182951" transform="scale(0.5687231428770632)"></path>
</g><g transform="translate(402.6291565010298 -100) rotate(0)">
<animateTransform attributeName="transform" type="translate" keyTimes="0;1" values="402.6291565010298 -100;1552.1780861415718 1100" dur="10s" repeatCount="indefinite" begin="-5.012303581961941s"></animateTransform>
<animateTransform attributeName="transform" type="rotate" keyTimes="0;1" begin="-5.012303581961941s" values="0 50 50;99.89531413440776 50 50" dur="10s" repeatCount="indefinite" additive="sum"></animateTransform>
<path d="M87.422,66.495c-2.009-0.544-4.049-0.97-6.107-1.283c10.617-11.116,15.747-27.37,13.129-42.549 c-5.236,1.77-10.223,4.252-14.824,7.313c-4.13,2.747-7.948,5.961-11.374,9.55C67.425,24.863,61.344,10.451,50.991,0 c-4.015,5.451-7.281,11.444-9.753,17.744c-3.579,9.122-5.501,18.893-5.669,28.691c-4.79-7.979-11.256-14.955-18.858-20.322 c-4.514-3.187-9.431-5.806-14.616-7.72c-3.361,16.717,2.731,35.015,15.445,46.379c0.369,0.33,0.745,0.654,1.126,0.972 c-2.359,0.411-4.689,0.983-6.969,1.714C7.582,68.775,3.634,70.61,0,72.945c8.85,9.963,23.134,14.771,36.208,12.186 c3.524-0.697,7.002-1.919,9.887-4.057c0.073-0.054,0.145-0.111,0.218-0.167c-0.987,5.662-2.714,11.136-5.104,16.221l7.509,2.806 c1.698-5.797,2.631-11.748,2.814-17.669c0.107,0.076,0.215,0.152,0.324,0.225c3.142,2.114,6.863,3.232,10.607,3.796 C76.352,88.379,91.161,82.628,100,71.71C96.061,69.427,91.816,67.684,87.422,66.495z" fill="#182951" transform="scale(0.46547128372956703)"></path>
</g><g transform="translate(38.79441658135252 -100) rotate(0)">
<animateTransform attributeName="transform" type="translate" keyTimes="0;1" values="38.79441658135252 -100;995.6594552834346 1100" dur="10s" repeatCount="indefinite" begin="-4.162022673835284s"></animateTransform>
<animateTransform attributeName="transform" type="rotate" keyTimes="0;1" begin="-4.162022673835284s" values="0 50 50;139.58692596345892 50 50" dur="10s" repeatCount="indefinite" additive="sum"></animateTransform>
<path d="M87.422,66.495c-2.009-0.544-4.049-0.97-6.107-1.283c10.617-11.116,15.747-27.37,13.129-42.549 c-5.236,1.77-10.223,4.252-14.824,7.313c-4.13,2.747-7.948,5.961-11.374,9.55C67.425,24.863,61.344,10.451,50.991,0 c-4.015,5.451-7.281,11.444-9.753,17.744c-3.579,9.122-5.501,18.893-5.669,28.691c-4.79-7.979-11.256-14.955-18.858-20.322 c-4.514-3.187-9.431-5.806-14.616-7.72c-3.361,16.717,2.731,35.015,15.445,46.379c0.369,0.33,0.745,0.654,1.126,0.972 c-2.359,0.411-4.689,0.983-6.969,1.714C7.582,68.775,3.634,70.61,0,72.945c8.85,9.963,23.134,14.771,36.208,12.186 c3.524-0.697,7.002-1.919,9.887-4.057c0.073-0.054,0.145-0.111,0.218-0.167c-0.987,5.662-2.714,11.136-5.104,16.221l7.509,2.806 c1.698-5.797,2.631-11.748,2.814-17.669c0.107,0.076,0.215,0.152,0.324,0.225c3.142,2.114,6.863,3.232,10.607,3.796 C76.352,88.379,91.161,82.628,100,71.71C96.061,69.427,91.816,67.684,87.422,66.495z" fill="#182951" transform="scale(0.6514494595987588)"></path>
</g></g>
</svg>